<?xml version="1.0" encoding="us-ascii" standalone="no"?><svg xmlns="http://www.w3.org/2000/svg" xmlns:xlink="http://www.w3.org/1999/xlink" contentStyleType="text/css" height="1117px" preserveAspectRatio="none" style="width:1411px;height:1117px;background:#FFFFFF;" version="1.1" viewBox="0 0 1411 1117" width="1411px" zoomAndPan="magnify"><defs/><g><rect fill="#008080" height="1068.4639" style="stroke:#0000FF;stroke-width:0.5;" width="1353.5" x="30" y="43.0986"/><rect fill="#00FFFF" height="1063.4639" style="stroke:#0000FF;stroke-width:0.5;" width="473" x="542.5" y="48.0986"/><text fill="#000000" font-family="Arial" font-size="10" font-weight="bold" lengthAdjust="spacing" textLength="40" x="759" y="57.4785">Network</text><text fill="#000000" font-family="Arial" font-size="14" font-weight="bold" lengthAdjust="spacing" textLength="259" x="593.75" y="28.1318">Client-server communication protocol</text><rect fill="#D3D3D3" height="259.9883" style="stroke:#D3D3D3;stroke-width:1.0;" width="1377.5" x="18" y="147.0967"/><rect fill="#D3D3D3" height="584.9785" style="stroke:#D3D3D3;stroke-width:1.0;" width="1349.5" x="8" y="425.085"/><line style="stroke:#181818;stroke-width:0.5;stroke-dasharray:5.0,5.0;" x1="47.5" x2="47.5" y1="135.0967" y2="1034.0635"/><rect fill="#FFFFFF" height="794.9707" style="stroke:#181818;stroke-width:1.0;" width="10" x="42.5" y="239.0928"/><line style="stroke:#181818;stroke-width:0.5;stroke-dasharray:5.0,5.0;" x1="188.5" x2="188.5" y1="135.0967" y2="1034.0635"/><rect fill="#FFFFFF" height="765.9727" style="stroke:#181818;stroke-width:1.0;" width="10" x="183.5" y="268.0908"/><line style="stroke:#181818;stroke-width:0.5;stroke-dasharray:5.0,5.0;" x1="243.5" x2="243.5" y1="135.0967" y2="1034.0635"/><rect fill="#FFFFFF" height="567.9805" style="stroke:#181818;stroke-width:1.0;" width="10" x="238.5" y="466.083"/><line style="stroke:#181818;stroke-width:0.5;stroke-dasharray:5.0,5.0;" x1="377.5" x2="377.5" y1="135.0967" y2="1034.0635"/><line style="stroke:#181818;stroke-width:0.5;stroke-dasharray:5.0,5.0;" x1="566.5" x2="566.5" y1="135.0967" y2="1034.0635"/><rect fill="#FFFFFF" height="728.9746" style="stroke:#181818;stroke-width:1.0;" width="10" x="561.5" y="305.0889"/><line style="stroke:#181818;stroke-width:0.5;stroke-dasharray:5.0,5.0;" x1="716.5" x2="716.5" y1="135.0967" y2="1034.0635"/><line style="stroke:#181818;stroke-width:0.5;stroke-dasharray:5.0,5.0;" x1="815.5" x2="815.5" y1="135.0967" y2="1034.0635"/><line style="stroke:#181818;stroke-width:0.5;stroke-dasharray:5.0,5.0;" x1="989.5" x2="989.5" y1="135.0967" y2="1034.0635"/><rect fill="#FFFFFF" height="845.9688" style="stroke:#181818;stroke-width:1.0;" width="10" x="984.5" y="188.0947"/><line style="stroke:#181818;stroke-width:0.5;stroke-dasharray:5.0,5.0;" x1="1171.5" x2="1171.5" y1="135.0967" y2="1034.0635"/><line style="stroke:#181818;stroke-width:0.5;stroke-dasharray:5.0,5.0;" x1="1290.5" x2="1290.5" y1="135.0967" y2="1034.0635"/><line style="stroke:#181818;stroke-width:0.5;stroke-dasharray:5.0,5.0;" x1="1350.5" x2="1350.5" y1="135.0967" y2="1034.0635"/><rect fill="#FFFFFF" height="863.4678" style="stroke:#181818;stroke-width:1.0;" width="10" x="1345.5" y="170.5957"/><text fill="#000000" font-family="Arial" font-size="10" lengthAdjust="spacing" textLength="21" x="34" y="132.9775">User</text><ellipse cx="47.5" cy="72.0977" fill="#E2E2F0" rx="8" ry="8" style="stroke:#181818;stroke-width:0.5;"/><path d="M47.5,80.0977 L47.5,107.0977 M34.5,88.0977 L60.5,88.0977 M47.5,107.0977 L34.5,122.0977 M47.5,107.0977 L60.5,122.0977 " fill="none" style="stroke:#181818;stroke-width:0.5;"/><text fill="#000000" font-family="Arial" font-size="10" lengthAdjust="spacing" textLength="48" x="161.5" y="132.9775">ClientMain</text><ellipse cx="188.5" cy="107.5977" fill="#E2E2F0" rx="12" ry="12" style="stroke:#181818;stroke-width:0.5;"/><line style="stroke:#181818;stroke-width:0.5;" x1="176.5" x2="200.5" y1="121.5977" y2="121.5977"/><rect fill="#E2E2F0" height="25.499" rx="2.5" ry="2.5" style="stroke:#181818;stroke-width:0.5;" width="36" x="225.5" y="108.5977"/><text fill="#000000" font-family="Arial" font-size="10" lengthAdjust="spacing" textLength="22" x="232.5" y="124.9775">View</text><rect fill="#E2E2F0" height="25.499" rx="2.5" ry="2.5" style="stroke:#181818;stroke-width:0.5;" width="60" x="347.5" y="108.5977"/><text fill="#000000" font-family="Arial" font-size="10" lengthAdjust="spacing" textLength="46" x="354.5" y="124.9775">Minimodel</text><rect fill="#E2E2F0" height="25.499" rx="2.5" ry="2.5" style="stroke:#181818;stroke-width:0.5;" width="40" x="546.5" y="108.5977"/><text fill="#000000" font-family="Arial" font-size="10" lengthAdjust="spacing" textLength="26" x="553.5" y="124.9775">Client</text><path d="M672,113.5977 L761,113.5977 C766,113.5977 766,124.3472 766,124.3472 C766,124.3472 766,135.0967 761,135.0967 L672,135.0967 C667,135.0967 667,124.3472 667,124.3472 C667,124.3472 667,113.5977 672,113.5977 " fill="#E2E2F0" style="stroke:#181818;stroke-width:0.5;"/><path d="M761,113.5977 C756,113.5977 756,124.3472 756,124.3472 C756,135.0967 761,135.0967 761,135.0967 " fill="none" style="stroke:#181818;stroke-width:0.5;"/><text fill="#000000" font-family="Arial" font-size="10" lengthAdjust="spacing" textLength="79" x="672" y="127.9775">CommandQueue</text><path d="M781,113.5977 L850,113.5977 C855,113.5977 855,124.3472 855,124.3472 C855,124.3472 855,135.0967 850,135.0967 L781,135.0967 C776,135.0967 776,124.3472 776,124.3472 C776,124.3472 776,113.5977 781,113.5977 " fill="#E2E2F0" style="stroke:#181818;stroke-width:0.5;"/><path d="M850,113.5977 C845,113.5977 845,124.3472 845,124.3472 C845,135.0967 850,135.0967 850,135.0967 " fill="none" style="stroke:#181818;stroke-width:0.5;"/><text fill="#000000" font-family="Arial" font-size="10" lengthAdjust="spacing" textLength="59" x="781" y="127.9775">EventQueue</text><rect fill="#E2E2F0" height="25.499" rx="2.5" ry="2.5" style="stroke:#181818;stroke-width:0.5;" width="44" x="967.5" y="108.5977"/><text fill="#000000" font-family="Arial" font-size="10" lengthAdjust="spacing" textLength="30" x="974.5" y="124.9775">Server</text><rect fill="#E2E2F0" height="25.499" rx="2.5" ry="2.5" style="stroke:#181818;stroke-width:0.5;" width="58" x="1142.5" y="108.5977"/><text fill="#000000" font-family="Arial" font-size="10" lengthAdjust="spacing" textLength="44" x="1149.5" y="124.9775">Controller</text><rect fill="#E2E2F0" height="25.499" rx="2.5" ry="2.5" style="stroke:#181818;stroke-width:0.5;" width="42" x="1269.5" y="108.5977"/><text fill="#000000" font-family="Arial" font-size="10" lengthAdjust="spacing" textLength="28" x="1276.5" y="124.9775">Model</text><text fill="#000000" font-family="Arial" font-size="10" lengthAdjust="spacing" textLength="52" x="1321.5" y="132.9775">ServerMain</text><ellipse cx="1350.5" cy="107.5977" fill="#E2E2F0" rx="12" ry="12" style="stroke:#181818;stroke-width:0.5;"/><line style="stroke:#181818;stroke-width:0.5;" x1="1338.5" x2="1362.5" y1="121.5977" y2="121.5977"/><text fill="#000000" font-family="Arial" font-size="10" lengthAdjust="spacing" textLength="21" x="34" y="1103.4434">User</text><ellipse cx="47.5" cy="1042.5635" fill="#E2E2F0" rx="8" ry="8" style="stroke:#181818;stroke-width:0.5;"/><path d="M47.5,1050.5635 L47.5,1077.5635 M34.5,1058.5635 L60.5,1058.5635 M47.5,1077.5635 L34.5,1092.5635 M47.5,1077.5635 L60.5,1092.5635 " fill="none" style="stroke:#181818;stroke-width:0.5;"/><text fill="#000000" font-family="Arial" font-size="10" lengthAdjust="spacing" textLength="48" x="161.5" y="1075.4434">ClientMain</text><ellipse cx="188.5" cy="1050.0635" fill="#E2E2F0" rx="12" ry="12" style="stroke:#181818;stroke-width:0.5;"/><line style="stroke:#181818;stroke-width:0.5;" x1="176.5" x2="200.5" y1="1064.0635" y2="1064.0635"/><rect fill="#E2E2F0" height="25.499" rx="2.5" ry="2.5" style="stroke:#181818;stroke-width:0.5;" width="36" x="225.5" y="1034.0635"/><text fill="#000000" font-family="Arial" font-size="10" lengthAdjust="spacing" textLength="22" x="232.5" y="1050.4434">View</text><rect fill="#E2E2F0" height="25.499" rx="2.5" ry="2.5" style="stroke:#181818;stroke-width:0.5;" width="60" x="347.5" y="1034.0635"/><text fill="#000000" font-family="Arial" font-size="10" lengthAdjust="spacing" textLength="46" x="354.5" y="1050.4434">Minimodel</text><rect fill="#E2E2F0" height="25.499" rx="2.5" ry="2.5" style="stroke:#181818;stroke-width:0.5;" width="40" x="546.5" y="1034.0635"/><text fill="#000000" font-family="Arial" font-size="10" lengthAdjust="spacing" textLength="26" x="553.5" y="1050.4434">Client</text><path d="M672,1034.0635 L761,1034.0635 C766,1034.0635 766,1044.813 766,1044.813 C766,1044.813 766,1055.5625 761,1055.5625 L672,1055.5625 C667,1055.5625 667,1044.813 667,1044.813 C667,1044.813 667,1034.0635 672,1034.0635 " fill="#E2E2F0" style="stroke:#181818;stroke-width:0.5;"/><path d="M761,1034.0635 C756,1034.0635 756,1044.813 756,1044.813 C756,1055.5625 761,1055.5625 761,1055.5625 " fill="none" style="stroke:#181818;stroke-width:0.5;"/><text fill="#000000" font-family="Arial" font-size="10" lengthAdjust="spacing" textLength="79" x="672" y="1048.4434">CommandQueue</text><path d="M781,1034.0635 L850,1034.0635 C855,1034.0635 855,1044.813 855,1044.813 C855,1044.813 855,1055.5625 850,1055.5625 L781,1055.5625 C776,1055.5625 776,1044.813 776,1044.813 C776,1044.813 776,1034.0635 781,1034.0635 " fill="#E2E2F0" style="stroke:#181818;stroke-width:0.5;"/><path d="M850,1034.0635 C845,1034.0635 845,1044.813 845,1044.813 C845,1055.5625 850,1055.5625 850,1055.5625 " fill="none" style="stroke:#181818;stroke-width:0.5;"/><text fill="#000000" font-family="Arial" font-size="10" lengthAdjust="spacing" textLength="59" x="781" y="1048.4434">EventQueue</text><rect fill="#E2E2F0" height="25.499" rx="2.5" ry="2.5" style="stroke:#181818;stroke-width:0.5;" width="44" x="967.5" y="1034.0635"/><text fill="#000000" font-family="Arial" font-size="10" lengthAdjust="spacing" textLength="30" x="974.5" y="1050.4434">Server</text><rect fill="#E2E2F0" height="25.499" rx="2.5" ry="2.5" style="stroke:#181818;stroke-width:0.5;" width="58" x="1142.5" y="1034.0635"/><text fill="#000000" font-family="Arial" font-size="10" lengthAdjust="spacing" textLength="44" x="1149.5" y="1050.4434">Controller</text><rect fill="#E2E2F0" height="25.499" rx="2.5" ry="2.5" style="stroke:#181818;stroke-width:0.5;" width="42" x="1269.5" y="1034.0635"/><text fill="#000000" font-family="Arial" font-size="10" lengthAdjust="spacing" textLength="28" x="1276.5" y="1050.4434">Model</text><text fill="#000000" font-family="Arial" font-size="10" lengthAdjust="spacing" textLength="52" x="1321.5" y="1075.4434">ServerMain</text><ellipse cx="1350.5" cy="1050.0635" fill="#E2E2F0" rx="12" ry="12" style="stroke:#181818;stroke-width:0.5;"/><line style="stroke:#181818;stroke-width:0.5;" x1="1338.5" x2="1362.5" y1="1064.0635" y2="1064.0635"/><path d="M18,147.0967 L186,147.0967 L186,150.5957 L176,160.5957 L18,160.5957 L18,147.0967 " fill="#EEEEEE" style="stroke:#000000;stroke-width:1.5;"/><rect fill="none" height="259.9883" style="stroke:#000000;stroke-width:1.5;" width="1377.5" x="18" y="147.0967"/><text fill="#000000" font-family="Arial" font-size="10" font-weight="bold" lengthAdjust="spacing" textLength="123" x="33" y="157.4766">"Communication Setup" :</text><polygon fill="#181818" points="1005.5,184.0947,995.5,188.0947,1005.5,192.0947,1001.5,188.0947" style="stroke:#181818;stroke-width:1.0;"/><line style="stroke:#181818;stroke-width:1.0;" x1="999.5" x2="1344.5" y1="188.0947" y2="188.0947"/><text fill="#000000" font-family="Arial" font-size="10" lengthAdjust="spacing" textLength="164" x="1088" y="183.9756">create RMIserver and SocketServer</text><path d="M937,201.0947 L937,233.0947 L1042,233.0947 L1042,211.0947 L1032,201.0947 L937,201.0947 " fill="#FEFFDD" style="stroke:#181818;stroke-width:0.5;"/><path d="M1032,201.0947 L1032,211.0947 L1042,211.0947 L1032,201.0947 " fill="#FEFFDD" style="stroke:#181818;stroke-width:0.5;"/><text fill="#000000" font-family="Arial" font-size="10" lengthAdjust="spacing" textLength="84" x="943" y="215.4746">queue and thread</text><text fill="#000000" font-family="Arial" font-size="10" lengthAdjust="spacing" textLength="84" x="943" y="226.9736">setup + server run</text><polygon fill="#181818" points="171.5,264.0908,181.5,268.0908,171.5,272.0908,175.5,268.0908" style="stroke:#181818;stroke-width:1.0;"/><line style="stroke:#181818;stroke-width:1.0;" x1="52.5" x2="177.5" y1="268.0908" y2="268.0908"/><text fill="#000000" font-family="Arial" font-size="10" lengthAdjust="spacing" textLength="109" x="62" y="252.4727">choose connection and</text><text fill="#000000" font-family="Arial" font-size="10" lengthAdjust="spacing" textLength="95" x="70.5" y="263.9717">interface via terminal</text><polygon fill="#181818" points="549.5,301.0889,559.5,305.0889,549.5,309.0889,553.5,305.0889" style="stroke:#181818;stroke-width:1.0;"/><line style="stroke:#181818;stroke-width:1.0;" x1="193.5" x2="555.5" y1="305.0889" y2="305.0889"/><text fill="#000000" font-family="Arial" font-size="10" lengthAdjust="spacing" textLength="132" x="310" y="289.4707">uses abstract factory pattern</text><text fill="#000000" font-family="Arial" font-size="10" lengthAdjust="spacing" textLength="114" x="320.5" y="300.9697">to create a proper player</text><path d="M514,318.0889 L514,350.0889 L619,350.0889 L619,328.0889 L609,318.0889 L514,318.0889 " fill="#FEFFDD" style="stroke:#181818;stroke-width:0.5;"/><path d="M609,318.0889 L609,328.0889 L619,328.0889 L609,318.0889 " fill="#FEFFDD" style="stroke:#181818;stroke-width:0.5;"/><text fill="#000000" font-family="Arial" font-size="10" lengthAdjust="spacing" textLength="84" x="520" y="332.4688">queue and thread</text><text fill="#000000" font-family="Arial" font-size="10" lengthAdjust="spacing" textLength="76" x="520" y="343.9678">setup + view run</text><polygon fill="#181818" points="972.5,369.5859,982.5,373.5859,972.5,377.5859,976.5,373.5859" style="stroke:#181818;stroke-width:1.0;"/><line style="stroke:#181818;stroke-width:1.0;" x1="571.5" x2="978.5" y1="373.5859" y2="373.5859"/><text fill="#000000" font-family="Arial" font-size="10" lengthAdjust="spacing" textLength="124" x="716" y="369.4668">binding or TCP handshake</text><polygon fill="#181818" points="63.5,395.085,53.5,399.085,63.5,403.085,59.5,399.085" style="stroke:#181818;stroke-width:1.0;"/><line style="stroke:#181818;stroke-width:1.0;stroke-dasharray:2.0,2.0;" x1="57.5" x2="983.5" y1="399.085" y2="399.085"/><text fill="#000000" font-family="Arial" font-size="10" lengthAdjust="spacing" textLength="107" x="465" y="394.9658">connection established</text><path d="M8,425.085 L189,425.085 L189,428.584 L179,438.584 L8,438.584 L8,425.085 " fill="#EEEEEE" style="stroke:#000000;stroke-width:1.5;"/><rect fill="none" height="584.9785" style="stroke:#000000;stroke-width:1.5;" width="1349.5" x="8" y="425.085"/><text fill="#000000" font-family="Arial" font-size="10" font-weight="bold" lengthAdjust="spacing" textLength="136" x="23" y="435.4648">"Midgame Communication":</text><polygon fill="#181818" points="226.5,462.083,236.5,466.083,226.5,470.083,230.5,466.083" style="stroke:#181818;stroke-width:1.0;"/><line style="stroke:#181818;stroke-width:1.0;" x1="52.5" x2="232.5" y1="466.083" y2="466.083"/><text fill="#000000" font-family="Arial" font-size="10" lengthAdjust="spacing" textLength="117" x="87" y="461.9639">uses GUI or TUI interface</text><polygon fill="#181818" points="365.5,499.0811,375.5,503.0811,365.5,507.0811,369.5,503.0811" style="stroke:#181818;stroke-width:1.0;"/><line style="stroke:#181818;stroke-width:1.0;" x1="248.5" x2="371.5" y1="503.0811" y2="503.0811"/><text fill="#000000" font-family="Arial" font-size="10" lengthAdjust="spacing" textLength="107" x="258" y="487.4629">takes object needed to</text><text fill="#000000" font-family="Arial" font-size="10" lengthAdjust="spacing" textLength="108" x="259" y="498.9619">generate the command</text><polygon fill="#181818" points="259.5,524.5801,249.5,528.5801,259.5,532.5801,255.5,528.5801" style="stroke:#181818;stroke-width:1.0;"/><line style="stroke:#181818;stroke-width:1.0;stroke-dasharray:2.0,2.0;" x1="253.5" x2="376.5" y1="528.5801" y2="528.5801"/><text fill="#000000" font-family="Arial" font-size="10" lengthAdjust="spacing" textLength="68" x="279" y="524.4609">returns objects</text><path d="M185.5,541.5801 L185.5,562.5801 L301.5,562.5801 L301.5,551.5801 L291.5,541.5801 L185.5,541.5801 " fill="#FEFFDD" style="stroke:#181818;stroke-width:0.5;"/><path d="M291.5,541.5801 L291.5,551.5801 L301.5,551.5801 L291.5,541.5801 " fill="#FEFFDD" style="stroke:#181818;stroke-width:0.5;"/><text fill="#000000" font-family="Arial" font-size="10" lengthAdjust="spacing" textLength="95" x="191.5" y="555.96">generates command</text><polygon fill="#181818" points="549.5,581.5781,559.5,585.5781,549.5,589.5781,553.5,585.5781" style="stroke:#181818;stroke-width:1.0;"/><line style="stroke:#181818;stroke-width:1.0;" x1="248.5" x2="555.5" y1="585.5781" y2="585.5781"/><text fill="#000000" font-family="Arial" font-size="10" lengthAdjust="spacing" textLength="101" x="354.5" y="581.459">propagates command</text><polygon fill="#181818" points="803.5,607.0771,813.5,611.0771,803.5,615.0771,807.5,611.0771" style="stroke:#181818;stroke-width:1.0;"/><line style="stroke:#181818;stroke-width:1.0;" x1="571.5" x2="809.5" y1="611.0771" y2="611.0771"/><text fill="#000000" font-family="Arial" font-size="10" lengthAdjust="spacing" textLength="112" x="637.5" y="606.958">puts command in queue</text><polygon fill="#181818" points="826.5,607.0771,816.5,611.0771,826.5,615.0771,822.5,611.0771" style="stroke:#181818;stroke-width:1.0;"/><line style="stroke:#181818;stroke-width:1.0;" x1="820.5" x2="983.5" y1="611.0771" y2="611.0771"/><text fill="#000000" font-family="Arial" font-size="10" lengthAdjust="spacing" textLength="145" x="827.5" y="606.958">extracts commands from queue</text><rect fill="#EEEEEE" height="3" style="stroke:#EEEEEE;stroke-width:1.0;" width="1399.5" x="5" y="637.8267"/><line style="stroke:#000000;stroke-width:1.0;" x1="5" x2="1404.5" y1="637.8267" y2="637.8267"/><line style="stroke:#000000;stroke-width:1.0;" x1="5" x2="1404.5" y1="640.8267" y2="640.8267"/><rect fill="#EEEEEE" height="19.499" style="stroke:#000000;stroke-width:2.0;" width="230" x="589.75" y="629.0771"/><text fill="#000000" font-family="Arial" font-size="10" font-weight="bold" lengthAdjust="spacing" textLength="216" x="595.75" y="642.457">Remote method invocation or stream writing</text><polygon fill="#181818" points="259.5,672.0752,249.5,676.0752,259.5,680.0752,255.5,676.0752" style="stroke:#181818;stroke-width:1.0;"/><line style="stroke:#181818;stroke-width:1.0;stroke-dasharray:2.0,2.0;" x1="253.5" x2="814.5" y1="676.0752" y2="676.0752"/><text fill="#000000" font-family="Arial" font-size="10" lengthAdjust="spacing" textLength="27" x="518.5" y="671.9561">return</text><polygon fill="#181818" points="1159.5,697.5742,1169.5,701.5742,1159.5,705.5742,1163.5,701.5742" style="stroke:#181818;stroke-width:1.0;"/><line style="stroke:#181818;stroke-width:1.0;" x1="994.5" x2="1165.5" y1="701.5742" y2="701.5742"/><text fill="#000000" font-family="Arial" font-size="10" lengthAdjust="spacing" textLength="158" x="1004" y="697.4551">message executed passing model</text><polygon fill="#181818" points="1278.5,723.0732,1288.5,727.0732,1278.5,731.0732,1282.5,727.0732" style="stroke:#181818;stroke-width:1.0;"/><line style="stroke:#181818;stroke-width:1.0;" x1="1171.5" x2="1284.5" y1="727.0732" y2="727.0732"/><text fill="#000000" font-family="Arial" font-size="10" lengthAdjust="spacing" textLength="95" x="1183.5" y="722.9541">changes game state</text><polygon fill="#181818" points="1005.5,748.5723,995.5,752.5723,1005.5,756.5723,1001.5,752.5723" style="stroke:#181818;stroke-width:1.0;"/><line style="stroke:#181818;stroke-width:1.0;stroke-dasharray:2.0,2.0;" x1="999.5" x2="1289.5" y1="752.5723" y2="752.5723"/><text fill="#000000" font-family="Arial" font-size="10" lengthAdjust="spacing" textLength="27" x="1129" y="748.4531">return</text><path d="M1244.5,765.5723 L1244.5,786.5723 L1336.5,786.5723 L1336.5,775.5723 L1326.5,765.5723 L1244.5,765.5723 " fill="#FEFFDD" style="stroke:#181818;stroke-width:0.5;"/><path d="M1326.5,765.5723 L1326.5,775.5723 L1336.5,775.5723 L1326.5,765.5723 " fill="#FEFFDD" style="stroke:#181818;stroke-width:0.5;"/><text fill="#000000" font-family="Arial" font-size="10" lengthAdjust="spacing" textLength="71" x="1250.5" y="779.9521">generate event</text><polygon fill="#181818" points="1005.5,805.5703,995.5,809.5703,1005.5,813.5703,1001.5,809.5703" style="stroke:#181818;stroke-width:1.0;"/><line style="stroke:#181818;stroke-width:1.0;" x1="999.5" x2="1289.5" y1="809.5703" y2="809.5703"/><text fill="#000000" font-family="Arial" font-size="10" lengthAdjust="spacing" textLength="82" x="1101.5" y="805.4512">propagates event</text><polygon fill="#181818" points="727.5,831.0693,717.5,835.0693,727.5,839.0693,723.5,835.0693" style="stroke:#181818;stroke-width:1.0;"/><line style="stroke:#181818;stroke-width:1.0;" x1="721.5" x2="983.5" y1="835.0693" y2="835.0693"/><text fill="#000000" font-family="Arial" font-size="10" lengthAdjust="spacing" textLength="93" x="804" y="830.9502">puts event in queue</text><polygon fill="#181818" points="704.5,831.0693,714.5,835.0693,704.5,839.0693,708.5,835.0693" style="stroke:#181818;stroke-width:1.0;"/><line style="stroke:#181818;stroke-width:1.0;" x1="571.5" x2="710.5" y1="835.0693" y2="835.0693"/><text fill="#000000" font-family="Arial" font-size="10" lengthAdjust="spacing" textLength="126" x="581" y="830.9502">extracts events from queue</text><polygon fill="#181818" points="1278.5,856.5684,1288.5,860.5684,1278.5,864.5684,1282.5,860.5684" style="stroke:#181818;stroke-width:1.0;"/><line style="stroke:#181818;stroke-width:1.0;stroke-dasharray:2.0,2.0;" x1="716.5" x2="1284.5" y1="860.5684" y2="860.5684"/><text fill="#000000" font-family="Arial" font-size="10" lengthAdjust="spacing" textLength="27" x="990" y="856.4492">return</text><rect fill="#EEEEEE" height="3" style="stroke:#EEEEEE;stroke-width:1.0;" width="1399.5" x="5" y="887.3179"/><line style="stroke:#000000;stroke-width:1.0;" x1="5" x2="1404.5" y1="887.3179" y2="887.3179"/><line style="stroke:#000000;stroke-width:1.0;" x1="5" x2="1404.5" y1="890.3179" y2="890.3179"/><rect fill="#EEEEEE" height="19.499" style="stroke:#000000;stroke-width:2.0;" width="230" x="589.75" y="878.5684"/><text fill="#000000" font-family="Arial" font-size="10" font-weight="bold" lengthAdjust="spacing" textLength="216" x="595.75" y="891.9482">Remote method invocation or stream writing</text><polygon fill="#181818" points="388.5,921.5664,378.5,925.5664,388.5,929.5664,384.5,925.5664" style="stroke:#181818;stroke-width:1.0;"/><line style="stroke:#181818;stroke-width:1.0;" x1="382.5" x2="560.5" y1="925.5664" y2="925.5664"/><text fill="#000000" font-family="Arial" font-size="10" lengthAdjust="spacing" textLength="160" x="389.5" y="921.4473">event executed passing minimodel</text><polygon fill="#181818" points="259.5,947.0654,249.5,951.0654,259.5,955.0654,255.5,951.0654" style="stroke:#181818;stroke-width:1.0;"/><line style="stroke:#181818;stroke-width:1.0;" x1="253.5" x2="376.5" y1="951.0654" y2="951.0654"/><text fill="#000000" font-family="Arial" font-size="10" lengthAdjust="spacing" textLength="56" x="285" y="946.9463">update view</text><polygon fill="#181818" points="549.5,972.5645,559.5,976.5645,549.5,980.5645,553.5,976.5645" style="stroke:#181818;stroke-width:1.0;"/><line style="stroke:#181818;stroke-width:1.0;stroke-dasharray:2.0,2.0;" x1="248.5" x2="555.5" y1="976.5645" y2="976.5645"/><text fill="#000000" font-family="Arial" font-size="10" lengthAdjust="spacing" textLength="27" x="391.5" y="972.4453">return</text><polygon fill="#181818" points="63.5,998.0635,53.5,1002.0635,63.5,1006.0635,59.5,1002.0635" style="stroke:#181818;stroke-width:1.0;"/><line style="stroke:#181818;stroke-width:1.0;" x1="57.5" x2="237.5" y1="1002.0635" y2="1002.0635"/><text fill="#000000" font-family="Arial" font-size="10" lengthAdjust="spacing" textLength="80" x="105.5" y="997.9443">displays changes</text><!--SRC=[bLLDJzj04BtlhvWcKY-L9NeaKY91L11IWrf2U-fbOm_EDlQksLq7mg_lxATje9Ng0zWxNs_UlDcOWv0Trxm5WuyzoX8tQ0olyQ8HjOGIfKNDJFQgy87tZRrIqcx52yBdi_UDjxn5kD22DoDxAd6fdY-Lhb2lLQCqpC_ekRhwYoCl3xLMlQoYy_dvUatEp0hR8AmRGH0BW_g86ahLjhqK9RT2IUYqigfK3TkfPvZV8s6vA2tb-47kZCA4FSK46ouaezfMbABZqi9FWK-JWusGebKLXcopMxHFIXzcCBzuxFd4CsHar45F-0WHbzLtzn6FlXp970x6OLlV0i6gW2fCCnAXMZKDcIUGF9pOHmZtVQGKZ3dYEfX_5VNUNciymMmzOMYBjkzci6103o-jE7ABurJkVFWiLk5z0QL6vtctkOdCKu-mLUK1RUm3uYCL-IddyihWda28YxLxobXDZCQ1WqyGA-XUPhFhq2L-3_Vqp8_QdRYNOZLCcthOAsMGD2CbbfuE1-IN54xo3xn4E0eEzDuAITAPf1sfnfqFdwd40dg31lZEM4rHGFb8UIVekAMCaifObLZaJgaTjTWr_FIwWQYcAPMZmt_Ic2WyafepWHFoulxamUw4h8IiWRRaVlqDzfJKxFa1HqeeYfLdSp6c3etbkqQOFLPUVrvvxmbm8whQtGqJ8SuMBCp7hLsaxlh7ZKT1__94MAR5xwVxKwpoPYx04b83QlURK854h90eKKHsZHArYxDxzBS4zSLoO94AQ-9BovJ1i87nO4zfJCuH8AIPkpdoUkBmeTEyRfsEr0jOJKkVA1_k0GhiRGwXTiD4sSV4-CGNdxsaih-11wtQ6B9Stc7hKBTezyhbEggux4GcYH7fUdtImjAGbqisv0KtrZ4BBDKURfy5PVK_3eG1ozuIknqtnkabN8s3AuqbZAGa2TN4XnywYOHqjucS9yt5UWFPCJGF3HtA69QZHbm7-rkcXmw6IpXoxKF6JAUfJ7qprzv_mlJOiSZjnbx-Smof-4ZA0U1RdlFFqA3Uj3LTvSWwviqOT1bH1R66tQs4STUDIGDYmzh-0G00]--></g></svg>